<svg xmlns="http://www.w3.org/2000/svg" viewBox="0 0 48 48" width="48" height="48">
  <!-- Google colors inspired file icon -->
  <defs>
    <linearGradient id="googleGradient" x1="0%" y1="0%" x2="100%" y2="100%">
      <stop offset="0%" style="stop-color:#4285F4"/>
      <stop offset="50%" style="stop-color:#34A853"/>
      <stop offset="100%" style="stop-color:#FBBC05"/>
    </linearGradient>
  </defs>
  <!-- File shape -->
  <path d="M12 4h18l10 10v28a2 2 0 0 1-2 2H12a2 2 0 0 1-2-2V6a2 2 0 0 1 2-2z" fill="#fff" stroke="url(#googleGradient)" stroke-width="2"/>
  <!-- Folded corner -->
  <path d="M30 4v10h10" fill="none" stroke="url(#googleGradient)" stroke-width="2"/>
  <path d="M30 4l10 10H32a2 2 0 0 1-2-2V4z" fill="#E8F0FE"/>
  <!-- Upload arrow -->
  <g transform="translate(24, 28)">
    <path d="M0 -8L6 0H3v8H-3v-8H-6z" fill="#4285F4"/>
  </g>
  <!-- Google dots -->
  <circle cx="18" cy="34" r="2" fill="#EA4335"/>
  <circle cx="24" cy="34" r="2" fill="#FBBC05"/>
  <circle cx="30" cy="34" r="2" fill="#34A853"/>
</svg>
